<svg width="219" height="34" viewBox="0 0 219 34" fill="none" xmlns="http://www.w3.org/2000/svg">
<g clip-path="url(#clip0_619_1126)">
<path d="M12.2911 33.3752C12.1163 33.3721 11.9439 33.3336 11.7836 33.262C11.6233 33.1904 11.4783 33.087 11.3569 32.9577C11.2355 32.8285 11.14 32.6759 11.076 32.5087C11.0119 32.3415 10.9805 32.1629 10.9835 31.9832V7.61618H1.36149C1.1861 7.62038 1.01163 7.58887 0.84813 7.52347C0.68463 7.45808 0.535321 7.36008 0.408794 7.23512C0.282266 7.11017 0.181022 6.96071 0.11088 6.79537C0.0407374 6.63002 0.00308366 6.45205 8.89331e-05 6.27168V1.96929C-0.0019728 1.78486 0.0318324 1.60188 0.0995188 1.43109C0.167205 1.26029 0.26741 1.10512 0.394241 0.97471C0.521071 0.844296 0.671969 0.741265 0.838072 0.671667C1.00418 0.602068 1.18213 0.567307 1.36149 0.569427H27.9202C28.0996 0.567307 28.2775 0.602068 28.4436 0.671667C28.6097 0.741265 28.7606 0.844296 28.8875 0.97471C29.0143 1.10512 29.1145 1.26029 29.1822 1.43109C29.2499 1.60188 29.2837 1.78486 29.2816 1.96929V6.27168C29.2786 6.45205 29.241 6.63002 29.1708 6.79537C29.1007 6.96071 28.9994 7.11017 28.8729 7.23512C28.7464 7.36008 28.5971 7.45808 28.4336 7.52347C28.2701 7.58887 28.0956 7.62038 27.9202 7.61618H18.2982V31.9832C18.3002 32.1666 18.2666 32.3486 18.1993 32.5184C18.132 32.6882 18.0324 32.8425 17.9063 32.9722C17.7802 33.1019 17.6301 33.2044 17.4649 33.2736C17.2998 33.3428 17.1228 33.3773 16.9445 33.3752H12.2911Z" fill="#373738"/>
<path d="M69.0159 33.3753C68.8376 33.3774 68.6606 33.3428 68.4954 33.2736C68.3303 33.2044 68.1802 33.102 68.0541 32.9723C67.928 32.8426 67.8283 32.6883 67.761 32.5185C67.6937 32.3486 67.6601 32.1667 67.6622 31.9833V1.96934C67.6602 1.78559 67.6937 1.60326 67.7609 1.43299C67.8281 1.26272 67.9276 1.10792 68.0537 0.977611C68.1797 0.847305 68.3297 0.744104 68.4949 0.674031C68.6601 0.603959 68.8372 0.568419 69.0159 0.569481H82.8606C90.6059 0.569481 95.4208 5.04587 95.4208 12.2429C95.4208 20.4997 88.9292 23.4339 82.8606 23.4339H74.9768V31.9833C74.9799 32.163 74.9485 32.3415 74.8844 32.5087C74.8203 32.6759 74.7249 32.8285 74.6035 32.9578C74.482 33.087 74.337 33.1904 74.1767 33.2621C74.0165 33.3337 73.844 33.3722 73.6693 33.3753H69.0159ZM74.9768 16.8221H82.8375C86.1064 16.8221 87.9831 15.1533 87.9831 12.2429C87.9831 9.33245 86.0141 7.61623 82.8375 7.61623H74.9768V16.8221Z" fill="#373738"/>
<path d="M101.05 33.3751C100.875 33.372 100.703 33.3335 100.542 33.2619C100.382 33.1903 100.237 33.0869 100.116 32.9576C99.9943 32.8284 99.8988 32.6758 99.8348 32.5086C99.7707 32.3414 99.7393 32.1628 99.7424 31.9831V1.96919C99.7362 1.60555 99.8703 1.25417 100.115 0.991857C100.36 0.729547 100.696 0.577641 101.05 0.569336H105.742C106.096 0.57764 106.433 0.729288 106.679 0.991368C106.925 1.25345 107.061 1.60481 107.057 1.96919V26.2888H121.232C121.586 26.295 121.923 26.445 122.169 26.7058C122.416 26.9666 122.552 27.3171 122.548 27.6807V31.9831C122.552 32.3468 122.416 32.6973 122.169 32.9581C121.923 33.2189 121.586 33.3689 121.232 33.3751H101.05Z" fill="#373738"/>
<path d="M140.894 34C131.495 34 124.665 26.8821 124.665 16.9723C124.665 7.06257 131.495 0 140.894 0C150.293 0 157.13 7.11793 157.13 16.9723C157.13 26.8267 150.3 34 140.894 34ZM140.894 7.23657C134.802 7.23657 132.025 12.2824 132.025 16.9723C132.025 21.8441 135.102 26.7634 140.894 26.7634C146.685 26.7634 149.77 21.8441 149.77 16.9723C149.77 12.2824 146.97 7.23657 140.894 7.23657Z" fill="#373738"/>
<path d="M171.582 33.3752C171.229 33.3689 170.892 33.219 170.645 32.9582C170.399 32.6974 170.263 32.3469 170.267 31.9832V7.61618H160.607C160.253 7.62254 159.911 7.48469 159.656 7.23276C159.401 6.98082 159.253 6.63529 159.245 6.27168V1.96929C159.243 1.78486 159.277 1.60188 159.345 1.43109C159.412 1.26029 159.513 1.10512 159.639 0.97471C159.766 0.844296 159.917 0.741265 160.083 0.671667C160.249 0.602068 160.427 0.567307 160.607 0.569427H187.173C187.352 0.568365 187.529 0.603905 187.694 0.673978C187.859 0.74405 188.009 0.847251 188.135 0.977558C188.261 1.10786 188.361 1.26267 188.428 1.43294C188.495 1.60321 188.529 1.78554 188.527 1.96929V6.27168C188.524 6.45137 188.486 6.62868 188.417 6.7935C188.347 6.95833 188.246 7.10742 188.121 7.23228C187.995 7.35713 187.847 7.45529 187.684 7.52116C187.521 7.58703 187.348 7.61932 187.173 7.61618H177.543V31.9832C177.545 32.1666 177.512 32.3486 177.444 32.5184C177.377 32.6882 177.278 32.8425 177.151 32.9722C177.025 33.1019 176.875 33.2044 176.71 33.2736C176.545 33.3428 176.368 33.3773 176.19 33.3752H171.582Z" fill="#373738"/>
<path d="M213.047 33.3752C212.672 33.3749 212.307 33.2532 212.003 33.0275C211.7 32.8018 211.473 32.4835 211.355 32.1177L209.817 27.1194H197.056L195.518 32.1256C195.398 32.4893 195.17 32.8052 194.867 33.0292C194.563 33.2533 194.199 33.3743 193.826 33.3752H188.757C188.608 33.38 188.46 33.3472 188.326 33.2797C188.192 33.2121 188.076 33.1119 187.988 32.9877C187.9 32.858 187.843 32.7087 187.821 32.5521C187.8 32.3954 187.815 32.2357 187.865 32.0861L198.502 1.73997C198.632 1.39492 198.86 1.09829 199.156 0.889299C199.453 0.680306 199.804 0.568787 200.164 0.569469H206.617C206.976 0.568175 207.326 0.679565 207.622 0.888743C207.917 1.09792 208.144 1.39491 208.271 1.73997L218.869 32.094C218.927 32.2358 218.95 32.3898 218.936 32.5427C218.923 32.6956 218.873 32.8429 218.793 32.9719C218.704 33.0966 218.589 33.1981 218.455 33.2682C218.321 33.3383 218.173 33.3749 218.023 33.3752H213.047ZM198.764 21.6069H208.14L203.425 6.20845L198.764 21.6069Z" fill="#373738"/>
<path d="M55.5861 24.5886H41.0569C40.6856 24.5886 40.3296 24.4369 40.067 24.167C39.8045 23.8971 39.657 23.5309 39.657 23.1492C39.657 22.7674 39.8045 22.4013 40.067 22.1314C40.3296 21.8614 40.6856 21.7098 41.0569 21.7098H55.3554C55.9523 21.7098 56.5434 21.5889 57.0949 21.354C57.6464 21.1191 58.1476 20.7748 58.5697 20.3408C58.9918 19.9067 59.3266 19.3915 59.555 18.8244C59.7835 18.2573 59.9011 17.6495 59.9011 17.0357C59.9011 16.4219 59.7835 15.814 59.555 15.247C59.3266 14.6799 58.9918 14.1646 58.5697 13.7306C58.1476 13.2965 57.6464 12.9522 57.0949 12.7173C56.5434 12.4825 55.9523 12.3616 55.3554 12.3616H41.0569C40.6856 12.3616 40.3296 12.2099 40.067 11.94C39.8045 11.67 39.657 11.3039 39.657 10.9221C39.657 10.5404 39.8045 10.1743 40.067 9.90433C40.3296 9.63439 40.6856 9.48274 41.0569 9.48274H55.5861C56.7917 9.48274 57.9479 8.9903 58.8004 8.11373C59.6529 7.23716 60.1318 6.04829 60.1318 4.80863C60.1318 3.56898 59.6529 2.38011 58.8004 1.50354C57.9479 0.626974 56.7917 0.134521 55.5861 0.134521H35.9728C35.5557 0.134521 35.1556 0.304922 34.8606 0.608235C34.5656 0.911547 34.3999 1.32292 34.3999 1.75187C34.3999 2.18082 34.5656 2.5922 34.8606 2.89552C35.1556 3.19883 35.5557 3.36923 35.9728 3.36923H55.5861C55.9574 3.36923 56.3134 3.52088 56.576 3.79082C56.8385 4.06076 56.986 4.42688 56.986 4.80863C56.986 5.19039 56.8385 5.55651 56.576 5.82645C56.3134 6.09639 55.9574 6.24804 55.5861 6.24804H41.0569C39.8513 6.24804 38.6951 6.74049 37.8426 7.61705C36.9901 8.49362 36.5112 9.6825 36.5112 10.9221C36.5112 12.1618 36.9901 13.3507 37.8426 14.2272C38.6951 15.1038 39.8513 15.5963 41.0569 15.5963H55.3554C55.5392 15.5963 55.7212 15.6335 55.8911 15.7058C56.0609 15.7782 56.2152 15.8842 56.3452 16.0178C56.4752 16.1515 56.5783 16.3102 56.6487 16.4848C56.719 16.6595 56.7552 16.8466 56.7552 17.0357C56.7552 17.2247 56.719 17.4119 56.6487 17.5865C56.5783 17.7611 56.4752 17.9198 56.3452 18.0535C56.2152 18.1871 56.0609 18.2932 55.8911 18.3655C55.7212 18.4378 55.5392 18.4751 55.3554 18.4751H41.0569C40.4599 18.4751 39.8688 18.596 39.3173 18.8309C38.7658 19.0658 38.2647 19.41 37.8426 19.8441C37.4205 20.2781 37.0857 20.7934 36.8572 21.3605C36.6288 21.9276 36.5112 22.5354 36.5112 23.1492C36.5112 23.763 36.6288 24.3708 36.8572 24.9379C37.0857 25.505 37.4205 26.0202 37.8426 26.4543C38.2647 26.8883 38.7658 27.2326 39.3173 27.4675C39.8688 27.7024 40.4599 27.8233 41.0569 27.8233H55.5861C55.9574 27.8233 56.3134 27.9749 56.576 28.2449C56.8385 28.5148 56.986 28.8809 56.986 29.2627C56.986 29.6444 56.8385 30.0106 56.576 30.2805C56.3134 30.5504 55.9574 30.7021 55.5861 30.7021H35.9728C35.5557 30.7021 35.1556 30.8725 34.8606 31.1758C34.5656 31.4791 34.3999 31.8905 34.3999 32.3195C34.3999 32.7484 34.5656 33.1598 34.8606 33.4631C35.1556 33.7664 35.5557 33.9368 35.9728 33.9368H55.5861C56.7917 33.9368 57.9479 33.4443 58.8004 32.5678C59.6529 31.6912 60.1318 30.5023 60.1318 29.2627C60.1318 28.023 59.6529 26.8342 58.8004 25.9576C57.9479 25.081 56.7917 24.5886 55.5861 24.5886Z" fill="url(#paint0_linear_619_1126)"/>
</g>
<defs>
<linearGradient id="paint0_linear_619_1126" x1="34.3961" y1="17.0357" x2="60.1318" y2="17.0357" gradientUnits="userSpaceOnUse">
<stop stop-color="#F29100"/>
<stop offset="1" stop-color="#E84E1B"/>
</linearGradient>
<clipPath id="clip0_619_1126">
<rect width="219" height="34" fill="white"/>
</clipPath>
</defs>
</svg>
