<?xml version="1.0" encoding="utf-8"?>
<!-- Generator: Adobe Illustrator 28.0.0, SVG Export Plug-In . SVG Version: 6.00 Build 0)  -->
<svg version="1.1" id="Слой_1" xmlns="http://www.w3.org/2000/svg" xmlns:xlink="http://www.w3.org/1999/xlink" x="0px" y="0px"
	 viewBox="0 0 1920 1080" style="enable-background:new 0 0 1920 1080;" xml:space="preserve">
<style type="text/css">
	.st0{fill:#FFFFFF;stroke:#4D4D4D;stroke-width:2;stroke-miterlimit:10;}
	.st1{fill:url(#SVGID_1_);}
</style>
<path class="st0" d="M980.19,573.34h-53.3c-7.28,0-13.18-5.9-13.18-13.17v-53.3c0-7.28,5.9-13.17,13.18-13.17h53.3
	c7.28,0,13.17,5.9,13.17,13.17v53.3C993.36,567.44,987.46,573.34,980.19,573.34z"/>
<linearGradient id="SVGID_1_" gradientUnits="userSpaceOnUse" x1="935.4125" y1="548.5508" x2="971" y2="548.5508" gradientTransform="matrix(1 0 0 -1 0 1082)">
	<stop  offset="0" style="stop-color:#F29100"/>
	<stop  offset="1" style="stop-color:#E84E1B"/>
</linearGradient>
<path class="st1" d="M964.71,543.89h-20.09c-0.51,0-1.01-0.21-1.37-0.58c-0.36-0.37-0.57-0.88-0.57-1.41c0-0.53,0.2-1.03,0.57-1.41
	c0.36-0.37,0.86-0.58,1.37-0.58h19.77c0.83,0,1.64-0.17,2.41-0.49c0.76-0.32,1.46-0.8,2.04-1.4c0.58-0.6,1.05-1.31,1.36-2.1
	c0.32-0.78,0.48-1.62,0.48-2.47c0-0.85-0.16-1.69-0.48-2.47c-0.32-0.78-0.78-1.5-1.36-2.1c-0.58-0.6-1.28-1.08-2.04-1.4
	c-0.76-0.32-1.58-0.49-2.41-0.49h-19.77c-0.51,0-1.01-0.21-1.37-0.58c-0.36-0.37-0.57-0.88-0.57-1.41c0-0.53,0.2-1.03,0.57-1.41
	c0.36-0.37,0.86-0.58,1.37-0.58h20.09c1.67,0,3.27-0.68,4.45-1.89c1.18-1.21,1.84-2.86,1.84-4.57c0-1.71-0.66-3.36-1.84-4.57
	c-1.18-1.21-2.78-1.89-4.45-1.89h-27.13c-0.58,0-1.13,0.24-1.54,0.66c-0.41,0.42-0.64,0.99-0.64,1.58c0,0.59,0.23,1.16,0.64,1.58
	c0.41,0.42,0.96,0.66,1.54,0.66h27.13c0.51,0,1.01,0.21,1.37,0.58c0.36,0.37,0.57,0.88,0.57,1.41c0,0.53-0.2,1.03-0.57,1.41
	c-0.36,0.37-0.86,0.58-1.37,0.58h-20.09c-1.67,0-3.27,0.68-4.45,1.89s-1.84,2.86-1.84,4.57c0,1.71,0.66,3.36,1.84,4.57
	c1.18,1.21,2.78,1.89,4.45,1.89h19.77c0.25,0,0.51,0.05,0.74,0.15c0.23,0.1,0.45,0.25,0.63,0.43c0.18,0.18,0.32,0.4,0.42,0.65
	c0.1,0.24,0.15,0.5,0.15,0.76c0,0.26-0.05,0.52-0.15,0.76c-0.1,0.24-0.24,0.46-0.42,0.65c-0.18,0.18-0.39,0.33-0.63,0.43
	c-0.23,0.1-0.49,0.15-0.74,0.15h-19.77c-0.83,0-1.64,0.17-2.41,0.49c-0.76,0.32-1.46,0.8-2.04,1.4c-0.58,0.6-1.05,1.31-1.36,2.1
	c-0.32,0.78-0.48,1.62-0.48,2.47c0,0.85,0.16,1.69,0.48,2.47c0.32,0.78,0.78,1.5,1.36,2.1c0.58,0.6,1.28,1.08,2.04,1.4
	c0.76,0.32,1.58,0.49,2.41,0.49h20.09c0.51,0,1.01,0.21,1.37,0.58c0.36,0.37,0.57,0.88,0.57,1.41c0,0.53-0.2,1.03-0.57,1.41
	c-0.36,0.37-0.86,0.58-1.37,0.58h-27.13c-0.58,0-1.13,0.24-1.54,0.66c-0.41,0.42-0.64,0.99-0.64,1.58c0,0.59,0.23,1.16,0.64,1.58
	c0.41,0.42,0.96,0.66,1.54,0.66h27.13c1.67,0,3.27-0.68,4.45-1.89c1.18-1.21,1.84-2.86,1.84-4.57c0-1.71-0.66-3.36-1.84-4.57
	C967.98,544.58,966.38,543.89,964.71,543.89z"/>
</svg>
