<svg width="220" height="33" viewBox="0 0 220 33" fill="none" xmlns="http://www.w3.org/2000/svg">
<g clip-path="url(#clip0_2002_161)">
<path d="M12.3472 32.3936C12.1717 32.3906 11.9985 32.3532 11.8374 32.2837C11.6764 32.2142 11.5307 32.1139 11.4088 31.9884C11.2868 31.8629 11.1909 31.7148 11.1265 31.5525C11.0622 31.3903 11.0306 31.217 11.0337 31.0426V7.39218H1.3677C1.19152 7.39626 1.01625 7.36568 0.852003 7.3022C0.687756 7.23873 0.537766 7.14362 0.41066 7.02234C0.283555 6.90105 0.181848 6.756 0.111386 6.59552C0.0409234 6.43503 0.00309774 6.26229 8.93392e-05 6.08723V1.91138C-0.00198181 1.73238 0.0319777 1.55478 0.0999732 1.38901C0.167969 1.22323 0.268632 1.07263 0.396041 0.946052C0.52345 0.819474 0.675037 0.719474 0.841899 0.651922C1.00876 0.58437 1.18753 0.550632 1.3677 0.55269H28.0477C28.2279 0.550632 28.4067 0.58437 28.5735 0.651922C28.7404 0.719474 28.892 0.819474 29.0194 0.946052C29.1468 1.07263 29.2474 1.22323 29.3154 1.38901C29.3834 1.55478 29.4174 1.73238 29.4153 1.91138V6.08723C29.4123 6.26229 29.3745 6.43503 29.304 6.59552C29.2336 6.756 29.1319 6.90105 29.0047 7.02234C28.8776 7.14362 28.7277 7.23873 28.5634 7.3022C28.3992 7.36568 28.2239 7.39626 28.0477 7.39218H18.3817V31.0426C18.3838 31.2206 18.35 31.3972 18.2824 31.562C18.2148 31.7268 18.1147 31.8766 17.988 32.0025C17.8613 32.1283 17.7106 32.2278 17.5447 32.2949C17.3787 32.3621 17.201 32.3956 17.0218 32.3936H12.3472Z" fill="white"/>
<path d="M69.3312 32.3936C69.152 32.3956 68.9742 32.3621 68.8083 32.2949C68.6424 32.2278 68.4917 32.1283 68.365 32.0025C68.2383 31.8766 68.1382 31.7268 68.0706 31.562C68.003 31.3972 67.9692 31.2206 67.9713 31.0426V1.91137C67.9692 1.73303 68.0029 1.55607 68.0705 1.3908C68.138 1.22554 68.2379 1.07529 68.3645 0.948814C68.4911 0.822341 68.6418 0.722175 68.8077 0.654163C68.9737 0.586152 69.1516 0.551657 69.3312 0.552688H83.2391C91.0198 0.552688 95.8567 4.89742 95.8567 11.8828C95.8567 19.8967 89.3354 22.7446 83.2391 22.7446H75.3193V31.0426C75.3224 31.217 75.2908 31.3903 75.2265 31.5525C75.1621 31.7148 75.0662 31.8629 74.9442 31.9884C74.8223 32.1139 74.6766 32.2142 74.5156 32.2837C74.3546 32.3532 74.1813 32.3906 74.0058 32.3936H69.3312ZM75.3193 16.3273H83.2159C86.4997 16.3273 88.385 14.7076 88.385 11.8828C88.385 9.05792 86.407 7.39218 83.2159 7.39218H75.3193V16.3273Z" fill="white"/>
<path d="M101.512 32.3936C101.337 32.3906 101.164 32.3532 101.003 32.2837C100.842 32.2142 100.696 32.1139 100.574 31.9884C100.452 31.8629 100.356 31.7148 100.292 31.5525C100.227 31.3903 100.196 31.217 100.199 31.0426V1.91137C100.193 1.55842 100.327 1.21738 100.574 0.962783C100.82 0.708187 101.157 0.56075 101.512 0.552689H106.226C106.582 0.560749 106.92 0.707936 107.167 0.962308C107.415 1.21668 107.551 1.55771 107.547 1.91137V25.5157H121.787C122.142 25.5218 122.481 25.6673 122.728 25.9204C122.976 26.1736 123.112 26.5138 123.108 26.8667V31.0426C123.112 31.3955 122.976 31.7357 122.728 31.9889C122.481 32.242 122.142 32.3875 121.787 32.3936H101.512Z" fill="white"/>
<path d="M141.536 33C132.094 33 125.233 26.0914 125.233 16.4731C125.233 6.85485 132.094 1.90735e-06 141.536 1.90735e-06C150.978 1.90735e-06 157.847 6.90858 157.847 16.4731C157.847 26.0377 150.986 33 141.536 33ZM141.536 7.02373C135.417 7.02373 132.627 11.9211 132.627 16.4731C132.627 21.2017 135.718 25.9763 141.536 25.9763C147.354 25.9763 150.453 21.2017 150.453 16.4731C150.453 11.9211 147.64 7.02373 141.536 7.02373Z" fill="white"/>
<path d="M172.365 32.3936C172.01 32.3875 171.672 32.242 171.424 31.9889C171.177 31.7357 171.04 31.3955 171.044 31.0426V7.39218H161.339C160.984 7.39836 160.641 7.26457 160.385 7.02004C160.128 6.77551 159.98 6.44014 159.972 6.08723V1.91138C159.97 1.73238 160.004 1.55478 160.072 1.38901C160.14 1.22323 160.24 1.07263 160.368 0.946052C160.495 0.819474 160.647 0.719474 160.814 0.651922C160.98 0.58437 161.159 0.550632 161.339 0.55269H188.027C188.207 0.551659 188.385 0.586154 188.551 0.654165C188.717 0.722176 188.867 0.822342 188.994 0.948816C189.12 1.07529 189.22 1.22554 189.288 1.3908C189.355 1.55607 189.389 1.73303 189.387 1.91138V6.08723C189.384 6.26163 189.346 6.43373 189.276 6.59371C189.206 6.75368 189.105 6.89839 188.979 7.01957C188.853 7.14075 188.704 7.23603 188.54 7.29996C188.377 7.3639 188.203 7.39523 188.027 7.39218H178.353V31.0426C178.355 31.2206 178.322 31.3972 178.254 31.562C178.186 31.7268 178.086 31.8766 177.96 32.0025C177.833 32.1283 177.682 32.2278 177.516 32.2949C177.35 32.3621 177.173 32.3956 176.994 32.3936H172.365Z" fill="white"/>
<path d="M214.02 32.3936C213.643 32.3932 213.276 32.2751 212.971 32.0561C212.666 31.837 212.438 31.5281 212.32 31.1731L210.774 26.3217H197.956L196.411 31.1807C196.29 31.5337 196.061 31.8403 195.756 32.0578C195.452 32.2752 195.086 32.3926 194.711 32.3936H189.619C189.469 32.3982 189.32 32.3664 189.186 32.3008C189.051 32.2353 188.934 32.138 188.846 32.0174C188.758 31.8916 188.7 31.7467 188.679 31.5946C188.657 31.4426 188.672 31.2876 188.723 31.1424L199.409 1.68876C199.538 1.35386 199.767 1.06596 200.065 0.863111C200.363 0.660265 200.716 0.552026 201.078 0.552688H207.56C207.921 0.551432 208.273 0.659546 208.57 0.862572C208.867 1.0656 209.094 1.35385 209.221 1.68876L219.869 31.15C219.926 31.2877 219.949 31.4371 219.936 31.5855C219.922 31.7339 219.873 31.8769 219.791 32.0021C219.703 32.1231 219.586 32.2217 219.452 32.2897C219.318 32.3577 219.169 32.3933 219.019 32.3936H214.02ZM199.671 20.9714H209.09L204.354 6.02582L199.671 20.9714Z" fill="white"/>
<path d="M55.8401 23.8653H41.2445C40.8716 23.8653 40.5139 23.7181 40.2501 23.4561C39.9864 23.1941 39.8383 22.8388 39.8383 22.4682C39.8383 22.0977 39.9864 21.7424 40.2501 21.4804C40.5139 21.2184 40.8716 21.0712 41.2445 21.0712H55.6083C56.208 21.0712 56.8018 20.9538 57.3558 20.7259C57.9098 20.4979 58.4132 20.1637 58.8372 19.7424C59.2613 19.3212 59.5976 18.821 59.8271 18.2706C60.0566 17.7202 60.1747 17.1303 60.1747 16.5345C60.1747 15.9388 60.0566 15.3489 59.8271 14.7985C59.5976 14.248 59.2613 13.7479 58.8372 13.3267C58.4132 12.9054 57.9098 12.5712 57.3558 12.3432C56.8018 12.1153 56.208 11.9979 55.6083 11.9979H41.2445C40.8716 11.9979 40.5139 11.8507 40.2501 11.5887C39.9864 11.3267 39.8383 10.9714 39.8383 10.6008C39.8383 10.2303 39.9864 9.87496 40.2501 9.61296C40.5139 9.35096 40.8716 9.20377 41.2445 9.20377H55.8401C57.0512 9.20377 58.2127 8.72581 59.0691 7.87502C59.9254 7.02424 60.4065 5.87033 60.4065 4.66713C60.4065 3.46394 59.9254 2.31003 59.0691 1.45925C58.2127 0.608464 57.0512 0.130495 55.8401 0.130495H36.1372C35.7182 0.130495 35.3163 0.295884 35.0199 0.590275C34.7236 0.884667 34.5571 1.28394 34.5571 1.70028C34.5571 2.11661 34.7236 2.51589 35.0199 2.81029C35.3163 3.10468 35.7182 3.27007 36.1372 3.27007H55.8401C56.2131 3.27007 56.5707 3.41726 56.8345 3.67926C57.0982 3.94126 57.2463 4.29661 57.2463 4.66713C57.2463 5.03766 57.0982 5.39301 56.8345 5.65501C56.5707 5.91701 56.2131 6.0642 55.8401 6.0642H41.2445C40.0334 6.0642 38.8719 6.54217 38.0156 7.39295C37.1592 8.24373 36.6781 9.39765 36.6781 10.6008C36.6781 11.804 37.1592 12.9579 38.0156 13.8087C38.8719 14.6595 40.0334 15.1375 41.2445 15.1375H55.6083C55.793 15.1375 55.9758 15.1736 56.1464 15.2438C56.3171 15.314 56.4721 15.4169 56.6027 15.5467C56.7332 15.6764 56.8368 15.8304 56.9075 15.9999C56.9782 16.1694 57.0145 16.3511 57.0145 16.5345C57.0145 16.718 56.9782 16.8997 56.9075 17.0692C56.8368 17.2387 56.7332 17.3927 56.6027 17.5224C56.4721 17.6521 56.3171 17.7551 56.1464 17.8253C55.9758 17.8955 55.793 17.9316 55.6083 17.9316H41.2445C40.6448 17.9316 40.051 18.049 39.497 18.2769C38.943 18.5049 38.4396 18.8391 38.0156 19.2604C37.5915 19.6816 37.2552 20.1817 37.0257 20.7322C36.7962 21.2826 36.6781 21.8725 36.6781 22.4682C36.6781 23.064 36.7962 23.6539 37.0257 24.2043C37.2552 24.7548 37.5915 25.2549 38.0156 25.6761C38.4396 26.0974 38.943 26.4316 39.497 26.6596C40.051 26.8875 40.6448 27.0049 41.2445 27.0049H55.8401C56.2131 27.0049 56.5707 27.1521 56.8345 27.4141C57.0982 27.6761 57.2463 28.0314 57.2463 28.4019C57.2463 28.7725 57.0982 29.1278 56.8345 29.3898C56.5707 29.6518 56.2131 29.799 55.8401 29.799H36.1372C35.7182 29.799 35.3163 29.9644 35.0199 30.2588C34.7236 30.5532 34.5571 30.9525 34.5571 31.3688C34.5571 31.7851 34.7236 32.1844 35.0199 32.4788C35.3163 32.7732 35.7182 32.9386 36.1372 32.9386H55.8401C57.0512 32.9386 58.2127 32.4606 59.0691 31.6098C59.9254 30.7591 60.4065 29.6051 60.4065 28.4019C60.4065 27.1988 59.9254 26.0448 59.0691 25.1941C58.2127 24.3433 57.0512 23.8653 55.8401 23.8653Z" fill="url(#paint0_linear_2002_161)"/>
</g>
<defs>
<linearGradient id="paint0_linear_2002_161" x1="34.5533" y1="16.5345" x2="60.4065" y2="16.5345" gradientUnits="userSpaceOnUse">
<stop stop-color="#F29100"/>
<stop offset="1" stop-color="#E84E1B"/>
</linearGradient>
<clipPath id="clip0_2002_161">
<rect width="220" height="33" fill="white"/>
</clipPath>
</defs>
</svg>
